<svg xmlns="http://www.w3.org/2000/svg" width="25" height="22" viewBox="0 0 25 22">
  <g id="Group_5227" data-name="Group 5227" transform="translate(-316 -650)">
    <rect id="Rectangle_1233" data-name="Rectangle 1233" width="25" height="22" rx="3" transform="translate(316 650)" fill="#fff" opacity="0.61"/>
    <path id="maximize" d="M12.723.8V3.84a.8.8,0,0,1-1.59,0V2.715L8.418,5.429A.8.8,0,0,1,7.293,4.3L10.008,1.59H8.883a.8.8,0,0,1,0-1.59h3.044a.8.8,0,0,1,.8.8ZM4.3,7.293,1.59,10.008V8.883a.8.8,0,1,0-1.59,0v3.044a.8.8,0,0,0,.8.8H3.84a.8.8,0,1,0,0-1.59H2.715L5.429,8.418A.8.8,0,0,0,4.3,7.293Z" transform="translate(322.639 654.639)"/>
  </g>
</svg>
