<svg xmlns="http://www.w3.org/2000/svg" width="16.5" height="16.5" viewBox="0 0 16.5 16.5">
  <g id="Group_5228" data-name="Group 5228" transform="translate(-257.343 -396.087)">
    <path id="Path_14346" data-name="Path 14346" d="M23.736,23.744a8.274,8.274,0,0,1,10.074-1.23l-.055-.3a.75.75,0,1,1,1.477-.266l.4,2.225a.75.75,0,0,1-.5.844l-1.945.648a.75.75,0,0,1-.475-1.423l.672-.224a6.737,6.737,0,1,0,2.512,3.2A.75.75,0,1,1,37.3,26.69a8.253,8.253,0,1,1-13.567-2.946Z" transform="translate(236.02 374.761)" fill="#3d3d3d"/>
    <text id="_30" data-name="30" transform="translate(266 408)" fill="#3d3d3d" font-size="9" font-family="Satoshi-Black, Satoshi" font-weight="800"><tspan x="-5" y="0">30</tspan></text>
  </g>
</svg>
