<svg xmlns="http://www.w3.org/2000/svg" width="13.957" height="16.749" viewBox="0 0 13.957 16.749">
  <g id="pause1" transform="translate(-42.667)">
    <g id="Group_5230" data-name="Group 5230" transform="translate(42.667)">
      <g id="Group_5229" data-name="Group 5229" transform="translate(0)">
        <path id="Path_14351" data-name="Path 14351" d="M47.2,0H43.714a1.048,1.048,0,0,0-1.047,1.047V15.7a1.048,1.048,0,0,0,1.047,1.047H47.2A1.048,1.048,0,0,0,48.25,15.7V1.047A1.048,1.048,0,0,0,47.2,0Z" transform="translate(-42.667)" fill="#3d3d3d"/>
      </g>
    </g>
    <g id="Group_5232" data-name="Group 5232" transform="translate(51.041)">
      <g id="Group_5231" data-name="Group 5231" transform="translate(0)">
        <path id="Path_14352" data-name="Path 14352" d="M303.2,0h-3.489a1.048,1.048,0,0,0-1.047,1.047V15.7a1.048,1.048,0,0,0,1.047,1.047H303.2A1.048,1.048,0,0,0,304.25,15.7V1.047A1.048,1.048,0,0,0,303.2,0Z" transform="translate(-298.667)" fill="#3d3d3d"/>
      </g>
    </g>
  </g>
</svg>
