<svg xmlns="http://www.w3.org/2000/svg" width="16.5" height="16.5" viewBox="0 0 16.5 16.5">
  <g id="_15" data-name="15" transform="translate(-98.343 -396.087)">
    <path id="Path_14346" data-name="Path 14346" d="M35.41,23.744a8.274,8.274,0,0,0-10.074-1.23l.055-.3a.75.75,0,1,0-1.477-.266l-.4,2.225a.75.75,0,0,0,.5.844l1.945.648a.75.75,0,0,0,.475-1.423l-.672-.224a6.737,6.737,0,1,1-2.512,3.2.75.75,0,0,0-1.406-.524A8.253,8.253,0,1,0,35.41,23.744Z" transform="translate(77.02 374.761)" fill="#3d3d3d"/>
    <text id="_15-2" data-name="15" transform="translate(106 408)" fill="#3d3d3d" font-size="9" font-family="Satoshi-Black, Satoshi" font-weight="800"><tspan x="-4" y="0">15</tspan></text>
  </g>
</svg>
