<svg xmlns="http://www.w3.org/2000/svg" width="14.261" height="14.261" viewBox="0 0 14.261 14.261">
  <g id="Solid" transform="translate(-24 -24)" opacity="0.58">
    <path id="Path_14347" data-name="Path 14347" d="M144.489,35.095a.738.738,0,0,0,1.043,0l2.782-2.782a.738.738,0,0,0-1.043-1.043l-1.523,1.523V24.738a.738.738,0,1,0-1.475,0v8.055L142.75,31.27a.738.738,0,1,0-1.043,1.043Z" transform="translate(-113.879)"/>
    <path id="Path_14348" data-name="Path 14348" d="M37.524,232a.738.738,0,0,0-.738.738v5.655H25.475v-5.655a.738.738,0,0,0-1.475,0v5.9a1.229,1.229,0,0,0,1.229,1.229h11.8a1.229,1.229,0,0,0,1.229-1.229v-5.9A.738.738,0,0,0,37.524,232Z" transform="translate(0 -201.607)"/>
  </g>
</svg>
